#!OML:ASF E:\Mandelcareful walks\Project 1\Capture day 1\Session 1\Subject1.ASF
:FULLY-SPECIFIED
:DEGREES
1052
root 25.0821 15.9285 1.03847 -1128.97 92.3875 -1137.45
lowerback 27.8676 0.727381 -1.66347
upperback 7.66791 1.12485 -0.478705
thorax -6.83308 0.835234 0.0264937
lowerneck -26.5023 -0.61043 -4.9634
upperneck 19.5566 1.11696 0.0220804
head 10.6221 0.13427 0.999078
rclavicle -7.95139e-016 -2.08724e-014
rhumerus -19.079 4.72365 -82.1586
rradius 51.3109
rwrist -20.3346
rhand -14.275 -28.2182
rfingers 7.12502
rthumb 11.8639 -57.8621
lclavicle -7.95139e-016 -2.08724e-014
lhumerus -15.9053 -10.8311 87.0921
lradius 43.8761
lwrist 18.7304
lhand -24.0341 -12.6006
lfingers 7.12502
lthumb 2.44439 17.3652
rfemur -33.9316 -10.8641 12.7773
rtibia 50.1999
rfoot -20.0056 -6.05151
rtoes -0.355054
lfemur -29.327 11.8385 -16.7028
ltibia 52.8959
lfoot -26.1162 1.23372
ltoes -2.59373
1053
root 25.0814 15.9297 1.03892 -1130.08 92.3934 -1138.54
lowerback 27.9213 0.767762 -1.72565
upperback 7.65913 1.15713 -0.492901
thorax -6.86981 0.851272 0.0347761
lowerneck -26.5702 -0.63497 -4.94144
upperneck 19.6605 1.08682 0.00311944
head 10.6736 0.117534 0.984597
rclavicle 1.2921e-015 3.85642e-014
rhumerus -19.1217 4.66988 -82.1732
rradius 51.2663
rwrist -20.3907
rhand -14.4546 -28.0601
rfingers 7.12502
rthumb 11.6907 -57.7139
lclavicle 1.2921e-015 3.85642e-014
lhumerus -15.8502 -10.7939 87.1533
lradius 43.7667
lwrist 18.6654
lhand -23.837 -12.3191
lfingers 7.12502
lthumb 2.63479 17.6444
rfemur -33.9138 -10.7982 12.7374
rtibia 50.2088
rfoot -20.0629 -6.05018
rtoes 0.0865937
lfemur -29.2956 11.8568 -16.7216
ltibia 52.8873
lfoot -26.1003 1.18799
ltoes -2.16163
1054
root 25.0775 15.9307 1.04035 -1129.04 92.304 -1137.52
lowerback 27.9401 0.785297 -1.7035
upperback 7.64288 1.18586 -0.461246
thorax -6.89798 0.864077 0.0470249
lowerneck -26.6176 -0.637286 -4.92832
upperneck 19.7512 1.08188 0.0109814
head 10.7155 0.115397 0.985277
rclavicle -1.14301e-014 -1.74931e-014
rhumerus -19.1035 4.67715 -82.18
rradius 51.1973
rwrist -20.4689
rhand -14.4224 -27.8932
rfingers 7.12502
rthumb 11.7218 -57.5453
lclavicle -1.14301e-014 -1.74931e-014
lhumerus -15.8548 -10.7006 87.2223
lradius 43.6993
lwrist 18.5718
lhand -23.6661 -12.0532
lfingers 7.12502
lthumb 2.79982 17.9082
rfemur -33.9629 -10.6706 12.8561
rtibia 50.204
rfoot -20.0801 -6.12459
rtoes 0.249647
lfemur -29.3583 11.9048 -16.6024
ltibia 52.8954
lfoot -26.0581 1.09393
ltoes -1.70068
1055
root 25.0738 15.9297 1.03973 -1127.66 92.2657 -1136.14
lowerback 27.9148 0.781339 -1.6975
upperback 7.70615 1.19424 -0.406705
thorax -6.81612 0.869546 0.102531
lowerneck -26.731 -0.648761 -4.96323
upperneck 19.7894 1.07754 0.0482654
head 10.7493 0.114211 1.00429
rclavicle 1.12313e-014 4.6118e-014
rhumerus -18.936 4.70739 -82.1094
rradius 51.1669
rwrist -20.4945
rhand -14.3285 -27.965
rfingers 7.12502
rthumb 11.8123 -57.6118
lclavicle 1.12313e-014 4.6118e-014
lhumerus -15.8447 -10.5549 87.3441
lradius 43.6699
lwrist 18.4199
lhand -23.6476 -11.721
lfingers 7.12502
lthumb 2.8177 18.2402
rfemur -33.9665 -10.6296 12.9319
rtibia 50.1791
rfoot -20.071 -6.21214
rtoes -0.10333
lfemur -29.3973 11.9236 -16.534
ltibia 52.9075
lfoot -26.0348 1.05489
ltoes -1.62776
1056
root 25.074 15.9307 1.03635 -1127.35 92.3201 -1135.83
lowerback 27.8456 0.770868 -1.71705
upperback 7.77187 1.18571 -0.380417
thorax -6.70973 0.867078 0.147888
lowerneck -26.8484 -0.636445 -5.04785
upperneck 19.7903 1.14361 0.0177637
head 10.7687 0.133178 1.01806
rclavicle -1.82882e-014 -6.36111e-015
rhumerus -18.7952 4.71756 -82.0279
rradius 51.1556
rwrist -20.5059
rhand -14.4584 -28.1422
rfingers 7.12502
rthumb 11.687 -57.7962
lclavicle -1.82882e-014 -6.36111e-015
lhumerus -15.87 -10.5685 87.4789
lradius 43.6798
lwrist 18.428
lhand -23.7618 -11.5567
lfingers 7.12502
lthumb 2.70739 18.4059
rfemur -33.9348 -10.6702 12.8833
rtibia 50.1433
rfoot -20.076 -6.2627
rtoes -0.515155
lfemur -29.4045 11.8924 -16.5943
ltibia 52.9077
lfoot -26.0522 1.08427
ltoes -1.8111
1057
root 25.0738 15.9346 1.03285 -1126.93 92.3675 -1135.47
lowerback 27.6941 0.750844 -1.7296
upperback 7.80581 1.16229 -0.365196
thorax -6.59853 0.855535 0.182969
lowerneck -26.83 -0.62354 -5.11885
upperneck 19.7518 1.18236 0.0367673
head 10.7498 0.148641 1.04256
rclavicle -5.76476e-015 -1.37161e-014
rhumerus -18.7865 4.7268 -81.9918
rradius 51.2555
rwrist -20.5075
rhand -14.6181 -28.2574
rfingers 7.12502
rthumb 11.5331 -57.9201
lclavicle -5.76476e-015 -1.37161e-014
lhumerus -15.8963 -10.5947 87.5662
lradius 43.7088
lwrist 18.5303
lhand -23.7488 -11.484
lfingers 7.12502
lthumb 2.71991 18.4784
rfemur -33.9712 -10.6766 12.8431
rtibia 50.1175
rfoot -20.0252 -6.34498
rtoes -0.526055
lfemur -29.4529 11.8359 -16.6562
ltibia 52.8926
lfoot -26.0749 1.10342
ltoes -1.86597
1058
root 25.073 15.9365 1.03075 -1126.32 92.4116 -1134.91
lowerback 27.664 0.733817 -1.7078
upperback 7.74792 1.13929 -0.376185
thorax -6.6478 0.842481 0.165568
lowerneck -26.7263 -0.608429 -5.15596
upperneck 19.8042 1.207 0.0609745
head 10.7499 0.159722 1.06165
rclavicle -4.37326e-015 -8.94531e-015
rhumerus -18.9559 4.7416 -82.0008
rradius 51.3819
rwrist -20.5416
rhand -14.4803 -28.5221
rfingers 7.12502
rthumb 11.666 -58.1773
lclavicle -4.37326e-015 -8.94531e-015
lhumerus -16.028 -10.6102 87.6372
lradius 43.6714
lwrist 18.5199
lhand -23.6831 -11.5605
lfingers 7.12502
lthumb 2.78336 18.4011
rfemur -34.0028 -10.6919 12.8137
rtibia 50.1133
rfoot -19.9932 -6.39153
rtoes -0.29781
lfemur -29.4936 11.7939 -16.6988
ltibia 52.8744
lfoot -26.0533 1.10632
ltoes -1.9456
1059
root 25.0721 15.9361 1.02954 -1126.53 92.456 -1135.14
lowerback 27.6467 0.740015 -1.69562
upperback 7.73529 1.14671 -0.407669
thorax -6.65285 0.845717 0.121568
lowerneck -26.7859 -0.61854 -5.15651
upperneck 19.9187 1.20187 0.0566294
head 10.8031 0.154287 1.06038
rclavicle -6.95746e-015 2.34566e-014
rhumerus -19.0145 4.69817 -82.0114
rradius 51.4216
rwrist -20.5385
rhand -14.3957 -28.4986
rfingers 7.12502
rthumb 11.7476 -58.1491
lclavicle -6.95746e-015 2.34566e-014
lhumerus -16.0951 -10.6911 87.6762
lradius 43.6709
lwrist 18.5211
lhand -23.6679 -11.8133
lfingers 7.12502
lthumb 2.79807 18.1481
rfemur -34.0286 -10.6753 12.7606
rtibia 50.1228
rfoot -20.0078 -6.39789
rtoes -0.0990836
lfemur -29.5424 11.811 -16.7524
ltibia 52.8724
lfoot -26.0024 1.07963
ltoes -2.08321
1060
root 25.0702 15.9352 1.02938 -1126.35 92.4491 -1134.97
lowerback 27.6889 0.748583 -1.69674
upperback 7.72743 1.156 -0.412749
thorax -6.68215 0.850344 0.112653
lowerneck -26.9437 -0.611414 -5.04803
upperneck 20.0546 1.20938 -0.0431817
head 10.883 0.149675 1.00903
rclavicle 1.13307e-014 -4.77083e-015
rhumerus -19.0501 4.64764 -82.0327
rradius 51.4403
rwrist -20.4863
rhand -14.4936 -28.1934
rfingers 7.12502
rthumb 11.6531 -57.8494
lclavicle 1.13307e-014 -4.77083e-015
lhumerus -16.1704 -10.7366 87.6957
lradius 43.7655
lwrist 18.5723
lhand -23.6255 -11.9632
lfingers 7.12502
lthumb 2.83907 17.9977
rfemur -34.0607 -10.5738 12.759
rtibia 50.1357
rfoot -20.048 -6.44078
rtoes -0.0809296
lfemur -29.5942 11.8296 -16.7394
ltibia 52.8922
lfoot -25.9697 1.0481
ltoes -2.11695
